<?xml version="1.0" encoding="UTF-8"?>
<svg width="803px" height="232px" viewBox="0 0 803 232" version="1.1" xmlns="http://www.w3.org/2000/svg" xmlns:xlink="http://www.w3.org/1999/xlink">
    <!-- Generator: Sketch 64 (93537) - https://sketch.com -->
    <title>Group@1920</title>
    <desc>Created with Sketch.</desc>
    <defs>
        <path d="M18.04,106 L18.04,59.25 L17.6,46.05 L18.04,46.05 L42.68,89.28 L48.62,89.28 L73.26,46.05 L73.7,46.05 L73.26,59.25 L73.26,106 L83.38,106 L83.38,27.24 L73.26,27.24 L45.87,75.2 L45.43,75.2 L18.04,27.24 L7.92,27.24 L7.92,106 L18.04,106 Z M121.66,107.76 C127.086667,107.76 131.945,106.476667 136.235,103.91 C140.525,101.343333 143.88,97.7866667 146.3,93.24 L146.3,93.24 L137.28,88.84 C133.613333,95.2933333 128.553333,98.52 122.1,98.52 C117.406667,98.52 113.373333,96.9066667 110,93.68 C106.626667,90.4533333 104.866667,86.2 104.72,80.92 L104.72,80.92 L147.07,80.92 L147.18,79.82 C147.18,70.5066667 144.815,63.265 140.085,58.095 C135.355,52.925 128.993333,50.34 121,50.34 C113.226667,50.34 106.846667,53.0716667 101.86,58.535 C96.8733333,63.9983333 94.38,70.8366667 94.38,79.05 C94.38,87.3366667 96.9466667,94.1933333 102.08,99.62 C107.213333,105.046667 113.74,107.76 121.66,107.76 Z M136.4,72.56 L105.49,72.56 C106.37,68.6 108.185,65.4466667 110.935,63.1 C113.685,60.7533333 116.966667,59.58 120.78,59.58 C125.4,59.58 129.085,60.8083333 131.835,63.265 C134.585,65.7216667 136.106667,68.82 136.4,72.56 L136.4,72.56 Z M179.52,107.76 C183.48,107.76 187.091667,106.916667 190.355,105.23 C193.618333,103.543333 196.13,101.306667 197.89,98.52 L197.89,98.52 L198.33,98.52 L198.33,106 L208.01,106 L208.01,27.24 L197.89,27.24 L197.89,52.1 L198.33,59.58 L197.89,59.58 C196.13,56.7933333 193.618333,54.5566667 190.355,52.87 C187.091667,51.1833333 183.48,50.34 179.52,50.34 C172.48,50.34 166.43,53.1266667 161.37,58.7 C156.383333,64.3466667 153.89,71.13 153.89,79.05 C153.89,86.97 156.383333,93.7533333 161.37,99.4 C166.43,104.973333 172.48,107.76 179.52,107.76 Z M181.17,98.52 C176.33,98.52 172.26,96.6866667 168.96,93.02 C165.66,89.4266667 164.01,84.77 164.01,79.05 C164.01,73.4033333 165.66,68.7466667 168.96,65.08 C172.26,61.4133333 176.33,59.58 181.17,59.58 C186.083333,59.58 190.153333,61.4133333 193.38,65.08 C196.68,68.7466667 198.33,73.4033333 198.33,79.05 C198.33,84.8433333 196.68,89.5366667 193.38,93.13 C190.226667,96.7233333 186.156667,98.52 181.17,98.52 Z M256.41,106 L256.41,74.1 L267.63,74.1 L288.86,106 L300.85,106 L300.85,105.56 L278.74,73.55 L278.96,73.22 C284.386667,72.0466667 288.878333,69.3516667 292.435,65.135 C295.991667,60.9183333 297.77,56.0966667 297.77,50.67 C297.77,44.07 295.368333,38.515 290.565,34.005 C285.761667,29.495 279.95,27.24 273.13,27.24 L273.13,27.24 L246.29,27.24 L246.29,106 L256.41,106 Z M272.69,64.64 L256.41,64.64 L256.41,36.92 L273.35,36.92 C277.383333,36.92 280.738333,38.295 283.415,41.045 C286.091667,43.795 287.43,47.0033333 287.43,50.67 C287.43,54.63 286,57.9483333 283.14,60.625 C280.28,63.3016667 276.796667,64.64 272.69,64.64 L272.69,64.64 Z M331.21,107.76 C336.636667,107.76 341.495,106.476667 345.785,103.91 C350.075,101.343333 353.43,97.7866667 355.85,93.24 L355.85,93.24 L346.83,88.84 C343.163333,95.2933333 338.103333,98.52 331.65,98.52 C326.956667,98.52 322.923333,96.9066667 319.55,93.68 C316.176667,90.4533333 314.416667,86.2 314.27,80.92 L314.27,80.92 L356.62,80.92 L356.73,79.82 C356.73,70.5066667 354.365,63.265 349.635,58.095 C344.905,52.925 338.543333,50.34 330.55,50.34 C322.776667,50.34 316.396667,53.0716667 311.41,58.535 C306.423333,63.9983333 303.93,70.8366667 303.93,79.05 C303.93,87.3366667 306.496667,94.1933333 311.63,99.62 C316.763333,105.046667 323.29,107.76 331.21,107.76 Z M345.95,72.56 L315.04,72.56 C315.92,68.6 317.735,65.4466667 320.485,63.1 C323.235,60.7533333 326.516667,59.58 330.33,59.58 C334.95,59.58 338.635,60.8083333 341.385,63.265 C344.135,65.7216667 345.656667,68.82 345.95,72.56 L345.95,72.56 Z M389.07,107.76 C393.03,107.76 396.641667,106.916667 399.905,105.23 C403.168333,103.543333 405.68,101.306667 407.44,98.52 L407.44,98.52 L407.88,98.52 L407.88,106 L417.56,106 L417.56,27.24 L407.44,27.24 L407.44,52.1 L407.88,59.58 L407.44,59.58 C405.68,56.7933333 403.168333,54.5566667 399.905,52.87 C396.641667,51.1833333 393.03,50.34 389.07,50.34 C382.03,50.34 375.98,53.1266667 370.92,58.7 C365.933333,64.3466667 363.44,71.13 363.44,79.05 C363.44,86.97 365.933333,93.7533333 370.92,99.4 C375.98,104.973333 382.03,107.76 389.07,107.76 Z M390.72,98.52 C385.88,98.52 381.81,96.6866667 378.51,93.02 C375.21,89.4266667 373.56,84.77 373.56,79.05 C373.56,73.4033333 375.21,68.7466667 378.51,65.08 C381.81,61.4133333 385.88,59.58 390.72,59.58 C395.633333,59.58 399.703333,61.4133333 402.93,65.08 C406.23,68.7466667 407.88,73.4033333 407.88,79.05 C407.88,84.8433333 406.23,89.5366667 402.93,93.13 C399.776667,96.7233333 395.706667,98.52 390.72,98.52 Z M440,106 L440,76.63 C440,72.0833333 441.411667,68.105 444.235,64.695 C447.058333,61.285 450.523333,59.58 454.63,59.58 C463.21,59.58 467.5,64.42 467.5,74.1 L467.5,74.1 L467.5,106 L477.62,106 L477.62,72.12 C477.62,65.1533333 475.841667,59.7816667 472.285,56.005 C468.728333,52.2283333 463.65,50.34 457.05,50.34 C453.603333,50.34 450.285,51.22 447.095,52.98 C443.905,54.74 441.54,56.94 440,59.58 L440,59.58 L439.56,59.58 L440,52.1 L440,27.24 L429.88,27.24 L429.88,106 L440,106 Z M506.77,107.76 C513.736667,107.76 519.31,104.68 523.49,98.52 L523.49,98.52 L523.93,98.52 L523.93,106 L533.61,106 L533.61,72.78 C533.61,65.8133333 531.446667,60.3316667 527.12,56.335 C522.793333,52.3383333 516.89,50.34 509.41,50.34 C499.803333,50.34 492.543333,53.86 487.63,60.9 L487.63,60.9 L496.54,66.51 C499.84,61.7433333 504.313333,59.36 509.96,59.36 C513.7,59.36 516.963333,60.5883333 519.75,63.045 C522.536667,65.5016667 523.93,68.49 523.93,72.01 L523.93,72.01 L523.93,74.32 C520.043333,72.12 515.093333,71.02 509.08,71.02 C502.04,71.02 496.411667,72.67 492.195,75.97 C487.978333,79.27 485.87,83.7066667 485.87,89.28 C485.87,94.56 487.868333,98.96 491.865,102.48 C495.861667,106 500.83,107.76 506.77,107.76 Z M507.54,98.74 C504.533333,98.74 501.911667,97.86 499.675,96.1 C497.438333,94.34 496.32,92.14 496.32,89.5 C496.32,86.5666667 497.695,84.11 500.445,82.13 C503.195,80.15 506.623333,79.16 510.73,79.16 C516.376667,79.16 520.776667,80.4066667 523.93,82.9 C523.93,87.1533333 522.261667,90.8566667 518.925,94.01 C515.588333,97.1633333 511.793333,98.74 507.54,98.74 Z" id="path-1"></path>
        <filter x="-1.7%" y="-8.7%" width="104.2%" height="127.3%" filterUnits="objectBoundingBox" id="filter-2">
            <feOffset dx="2" dy="4" in="SourceAlpha" result="shadowOffsetOuter1"></feOffset>
            <feGaussianBlur stdDeviation="3" in="shadowOffsetOuter1" result="shadowBlurOuter1"></feGaussianBlur>
            <feColorMatrix values="0 0 0 0 0   0 0 0 0 0   0 0 0 0 0  0 0 0 0.5 0" type="matrix" in="shadowBlurOuter1"></feColorMatrix>
        </filter>
        <path d="M9.84,192 L9.84,149.04 L4.32,149.04 L4.32,192 L9.84,192 Z M23.04,192 L23.04,175.74 C23.04,173.26 23.78,171.13 25.26,169.35 C26.74,167.57 28.58,166.68 30.78,166.68 C35.5,166.68 37.92,169.08 38.04,173.88 L38.04,173.88 L38.04,192 L43.56,192 L43.56,173.52 C43.56,169.72 42.59,166.79 40.65,164.73 C38.71,162.67 35.94,161.64 32.34,161.64 C30.46,161.64 28.65,162.12 26.91,163.08 C25.17,164.04 23.88,165.24 23.04,166.68 L23.04,166.68 L22.8,166.68 L22.8,162.6 L17.52,162.6 L17.52,192 L23.04,192 Z M83.22,192.96 C86.62,192.96 89.8,192.29 92.76,190.95 C95.72,189.61 98.22,187.72 100.26,185.28 L100.26,185.28 L96.24,181.38 C92.56,185.58 88.22,187.68 83.22,187.68 C78.46,187.68 74.48,186.08 71.28,182.88 C68.12,179.72 66.54,175.6 66.54,170.52 C66.54,165.44 68.12,161.32 71.28,158.16 C74.48,154.96 78.46,153.36 83.22,153.36 C88.02,153.36 91.96,155.22 95.04,158.94 L95.04,158.94 L99,155.1 C94.96,150.42 89.7,148.08 83.22,148.08 C76.82,148.08 71.5,150.24 67.26,154.56 C63.02,158.8 60.9,164.12 60.9,170.52 C60.9,176.92 63.02,182.26 67.26,186.54 C71.54,190.82 76.86,192.96 83.22,192.96 Z M118.02,192.96 C122.38,192.96 125.98,191.48 128.82,188.52 C131.7,185.6 133.14,181.86 133.14,177.3 C133.14,172.78 131.7,169.04 128.82,166.08 C125.98,163.12 122.38,161.64 118.02,161.64 C113.66,161.64 110.04,163.12 107.16,166.08 C104.32,169.04 102.9,172.78 102.9,177.3 C102.9,181.82 104.32,185.56 107.16,188.52 C110.04,191.48 113.66,192.96 118.02,192.96 Z M118.02,187.92 C115.3,187.92 113.02,186.94 111.18,184.98 C109.34,183.02 108.42,180.46 108.42,177.3 C108.42,174.18 109.34,171.64 111.18,169.68 C113.06,167.68 115.34,166.68 118.02,166.68 C120.7,166.68 122.98,167.68 124.86,169.68 C126.7,171.64 127.62,174.18 127.62,177.3 C127.62,180.46 126.7,183.02 124.86,184.98 C123.02,186.94 120.74,187.92 118.02,187.92 Z M150.48,192.96 C152.64,192.96 154.61,192.5 156.39,191.58 C158.17,190.66 159.54,189.44 160.5,187.92 L160.5,187.92 L160.74,187.92 L160.74,192 L166.02,192 L166.02,149.04 L160.5,149.04 L160.5,162.6 L160.74,166.68 L160.5,166.68 C159.54,165.16 158.17,163.94 156.39,163.02 C154.61,162.1 152.64,161.64 150.48,161.64 C146.64,161.64 143.34,163.16 140.58,166.2 C137.86,169.28 136.5,172.98 136.5,177.3 C136.5,181.62 137.86,185.32 140.58,188.4 C143.34,191.44 146.64,192.96 150.48,192.96 Z M151.38,187.92 C148.74,187.92 146.52,186.92 144.72,184.92 C142.92,182.96 142.02,180.42 142.02,177.3 C142.02,174.22 142.92,171.68 144.72,169.68 C146.52,167.68 148.74,166.68 151.38,166.68 C154.06,166.68 156.28,167.68 158.04,169.68 C159.84,171.68 160.74,174.22 160.74,177.3 C160.74,180.46 159.84,183.02 158.04,184.98 C156.32,186.94 154.1,187.92 151.38,187.92 Z M185.64,192.96 C188.6,192.96 191.25,192.26 193.59,190.86 C195.93,189.46 197.76,187.52 199.08,185.04 L199.08,185.04 L194.16,182.64 C192.16,186.16 189.4,187.92 185.88,187.92 C183.32,187.92 181.12,187.04 179.28,185.28 C177.44,183.52 176.48,181.2 176.4,178.32 L176.4,178.32 L199.5,178.32 L199.56,177.72 C199.56,172.64 198.27,168.69 195.69,165.87 C193.11,163.05 189.64,161.64 185.28,161.64 C181.04,161.64 177.56,163.13 174.84,166.11 C172.12,169.09 170.76,172.82 170.76,177.3 C170.76,181.82 172.16,185.56 174.96,188.52 C177.76,191.48 181.32,192.96 185.64,192.96 Z M193.68,173.76 L176.82,173.76 C177.3,171.6 178.29,169.88 179.79,168.6 C181.29,167.32 183.08,166.68 185.16,166.68 C187.68,166.68 189.69,167.35 191.19,168.69 C192.69,170.03 193.52,171.72 193.68,173.76 L193.68,173.76 Z M229.74,192 L237,169.44 L244.32,192 L249.96,192 L259.44,162.6 L253.8,162.6 L247.32,184.8 L247.26,184.8 L240,162.6 L234.3,162.6 L227.04,184.8 L226.98,184.8 L220.44,162.6 L214.68,162.6 L224.16,192 L229.74,192 Z M275.64,192.96 C278.6,192.96 281.25,192.26 283.59,190.86 C285.93,189.46 287.76,187.52 289.08,185.04 L289.08,185.04 L284.16,182.64 C282.16,186.16 279.4,187.92 275.88,187.92 C273.32,187.92 271.12,187.04 269.28,185.28 C267.44,183.52 266.48,181.2 266.4,178.32 L266.4,178.32 L289.5,178.32 L289.56,177.72 C289.56,172.64 288.27,168.69 285.69,165.87 C283.11,163.05 279.64,161.64 275.28,161.64 C271.04,161.64 267.56,163.13 264.84,166.11 C262.12,169.09 260.76,172.82 260.76,177.3 C260.76,181.82 262.16,185.56 264.96,188.52 C267.76,191.48 271.32,192.96 275.64,192.96 Z M283.68,173.76 L266.82,173.76 C267.3,171.6 268.29,169.88 269.79,168.6 C271.29,167.32 273.08,166.68 275.16,166.68 C277.68,166.68 279.69,167.35 281.19,168.69 C282.69,170.03 283.52,171.72 283.68,173.76 L283.68,173.76 Z M321,192 L321,154.32 L333,154.32 L333,149.04 L303.48,149.04 L303.48,154.32 L315.48,154.32 L315.48,192 L321,192 Z M339.72,192 L339.72,175.8 C339.72,173.56 340.49,171.6 342.03,169.92 C343.57,168.24 345.38,167.4 347.46,167.4 C348.94,167.4 350.02,167.54 350.7,167.82 L350.7,167.82 L352.38,162.48 C351.26,162 349.9,161.76 348.3,161.76 C346.62,161.76 344.91,162.31 343.17,163.41 C341.43,164.51 340.28,165.84 339.72,167.4 L339.72,167.4 L339.48,167.4 L339.48,162.6 L334.2,162.6 L334.2,192 L339.72,192 Z M366.96,192.96 C368.84,192.96 370.65,192.48 372.39,191.52 C374.13,190.56 375.42,189.36 376.26,187.92 L376.26,187.92 L376.5,187.92 L376.5,192 L381.78,192 L381.78,162.6 L376.26,162.6 L376.26,178.86 C376.26,181.34 375.52,183.47 374.04,185.25 C372.56,187.03 370.72,187.92 368.52,187.92 C363.8,187.92 361.38,185.52 361.26,180.72 L361.26,180.72 L361.26,162.6 L355.74,162.6 L355.74,181.08 C355.74,184.88 356.71,187.81 358.65,189.87 C360.59,191.93 363.36,192.96 366.96,192.96 Z M398.88,192.96 C402.28,192.96 405.1,192.08 407.34,190.32 C409.58,188.56 410.7,186.4 410.7,183.84 C410.7,179.4 407.78,176.46 401.94,175.02 L401.94,175.02 L397.5,173.88 C394.34,173.16 392.76,171.96 392.76,170.28 C392.76,169.24 393.33,168.36 394.47,167.64 C395.61,166.92 396.9,166.56 398.34,166.56 C399.9,166.56 401.31,166.91 402.57,167.61 C403.83,168.31 404.74,169.28 405.3,170.52 L405.3,170.52 L410.22,168.48 C409.38,166.4 407.91,164.74 405.81,163.5 C403.71,162.26 401.36,161.64 398.76,161.64 C395.36,161.64 392.57,162.45 390.39,164.07 C388.21,165.69 387.12,167.84 387.12,170.52 C387.12,174.6 389.98,177.36 395.7,178.8 L395.7,178.8 L400.74,180.06 C403.62,180.94 405.06,182.32 405.06,184.2 C405.06,185.24 404.47,186.14 403.29,186.9 C402.11,187.66 400.64,188.04 398.88,188.04 C397.24,188.04 395.73,187.55 394.35,186.57 C392.97,185.59 391.92,184.22 391.2,182.46 L391.2,182.46 L386.28,184.56 C387.24,187.08 388.84,189.11 391.08,190.65 C393.32,192.19 395.92,192.96 398.88,192.96 Z M426.84,192.48 C428.76,192.48 430.44,192.22 431.88,191.7 L431.88,191.7 L430.14,186.78 C429.78,186.94 429.39,187.07 428.97,187.17 C428.55,187.27 428.12,187.32 427.68,187.32 C426.72,187.32 425.86,186.97 425.1,186.27 C424.34,185.57 423.96,184.24 423.96,182.28 L423.96,182.28 L423.96,167.64 L431.16,167.64 L431.16,162.6 L423.96,162.6 L423.96,153.6 L418.44,153.6 L418.44,162.6 L413.28,162.6 L413.28,167.64 L418.44,167.64 L418.44,184.08 C418.48,186.72 419.29,188.78 420.87,190.26 C422.45,191.74 424.44,192.48 426.84,192.48 Z" id="path-3"></path>
        <filter x="-2.1%" y="-15.6%" width="105.1%" height="149.0%" filterUnits="objectBoundingBox" id="filter-4">
            <feOffset dx="2" dy="4" in="SourceAlpha" result="shadowOffsetOuter1"></feOffset>
            <feGaussianBlur stdDeviation="3" in="shadowOffsetOuter1" result="shadowBlurOuter1"></feGaussianBlur>
            <feColorMatrix values="0 0 0 0 0   0 0 0 0 0   0 0 0 0 0  0 0 0 0.5 0" type="matrix" in="shadowBlurOuter1"></feColorMatrix>
        </filter>
        <filter x="-12.7%" y="-10.2%" width="125.5%" height="120.4%" filterUnits="objectBoundingBox" id="filter-5">
            <feOffset dx="2" dy="4" in="SourceAlpha" result="shadowOffsetOuter1"></feOffset>
            <feGaussianBlur stdDeviation="3" in="shadowOffsetOuter1" result="shadowBlurOuter1"></feGaussianBlur>
            <feColorMatrix values="0 0 0 0 0   0 0 0 0 0   0 0 0 0 0  0 0 0 0.5 0" type="matrix" in="shadowBlurOuter1" result="shadowMatrixOuter1"></feColorMatrix>
            <feMerge>
                <feMergeNode in="shadowMatrixOuter1"></feMergeNode>
                <feMergeNode in="SourceGraphic"></feMergeNode>
            </feMerge>
        </filter>
        <linearGradient x1="3.97950983%" y1="26.9930287%" x2="75.8814384%" y2="52.9192657%" id="linearGradient-6">
            <stop stop-color="#000000" offset="0%"></stop>
            <stop stop-color="#000000" stop-opacity="0" offset="100%"></stop>
        </linearGradient>
    </defs>
    <g id="Page-1" stroke="none" stroke-width="1" fill="none" fill-rule="evenodd">
        <g id="Apple-TV-Copy-17" transform="translate(-939.000000, -1496.000000)">
            <g id="Group" transform="translate(943.000000, 1498.000000)">
                <g id="Group-3" transform="translate(258.000000, 11.000000)" fill-rule="nonzero">
                    <g id="Group-2">
                        <g id="MedRedha">
                            <use fill="black" fill-opacity="1" filter="url(#filter-2)" xlink:href="#path-1"></use>
                            <use fill="#FFFFFF" xlink:href="#path-1"></use>
                        </g>
                        <g id="InCodeweTrust">
                            <use fill="black" fill-opacity="1" filter="url(#filter-4)" xlink:href="#path-3"></use>
                            <use fill="#FFFFFF" xlink:href="#path-3"></use>
                        </g>
                    </g>
                </g>
                <g id="Logo_green_SVG" filter="url(#filter-5)" transform="translate(0.000000, 16.000000)" fill-rule="nonzero">
                    <g id="flutter-seeklogo.com">
                        <polygon id="Path" fill="#47C5FB" points="96.9707272 0 0 97.5554029 30.0142985 127.75067 157 0"></polygon>
                        <polygon id="Path" fill="#47C5FB" points="96.3749135 90.245886 44.5223881 141.879554 74.6098643 172.2876 104.529299 142.494448 157 90.245886"></polygon>
                        <polygon id="Path" fill="#00569E" points="74.9850746 172.93197 97.6582045 195.72809 157 195.72809 104.767826 142.986988"></polygon>
                        <polygon id="Path" fill="#00B5F8" points="43.3507463 142.873186 73.6151543 112.514351 104.276119 143.15752 74.0689464 173.459625"></polygon>
                        <polygon id="Path" fill-opacity="0.8" fill="url(#linearGradient-6)" points="73.8134328 173.459625 99.3920217 164.969205 101.932836 145.331037"></polygon>
                    </g>
                </g>
                <g id="Line-2" transform="translate(207.000000, 0.000000)" stroke="#FFFFFF" stroke-linecap="square" stroke-width="4">
                    <line x1="0.337686567" y1="0.144807876" x2="0.5" y2="228" id="Line"></line>
                </g>
            </g>
        </g>
    </g>
</svg>